<?xml version="1.0" encoding="utf-8"?>
<!-- Generator: Adobe Illustrator 24.3.0, SVG Export Plug-In . SVG Version: 6.00 Build 0)  -->
<svg version="1.1" id="Lager_1" xmlns="http://www.w3.org/2000/svg" xmlns:xlink="http://www.w3.org/1999/xlink" x="0px" y="0px"
	 viewBox="0 0 512 512" style="enable-background:new 0 0 512 512;" xml:space="preserve">
<style type="text/css">
	.st0{fill:none;stroke:#E3DDDD;stroke-width:4;stroke-linecap:round;stroke-linejoin:round;}
</style>
<path class="st0" d="M32,32v432c0,8.8,7.2,16,16,16h432"/>
<path class="st0" d="M116,224h40c11,0,20,9,20,20v152c0,11-9,20-20,20h-40c-11,0-20-9-20-20V244C96,233,105,224,116,224z"/>
<path class="st0" d="M260,176h40c11,0,20,9,20,20v200c0,11-9,20-20,20h-40c-11,0-20-9-20-20V196C240,185,249,176,260,176z"/>
<path class="st0" d="M403.6,112h40c11,0,20,9,20,20v264c0,11-9,20-20,20h-40c-11,0-20-9-20-20V132C383.6,121,392.6,112,403.6,112z"
	/>
</svg>
