<?xml version="1.0" encoding="utf-8"?>
<!-- Generator: Adobe Illustrator 24.3.0, SVG Export Plug-In . SVG Version: 6.00 Build 0)  -->
<svg version="1.1" id="Lager_1" xmlns="http://www.w3.org/2000/svg" xmlns:xlink="http://www.w3.org/1999/xlink" x="0px" y="0px"
	 viewBox="0 0 24 24" style="enable-background:new 0 0 24 24;" xml:space="preserve">
<style type="text/css">
	.st0{fill:none;stroke:#E3DDDD;stroke-linecap:round;stroke-miterlimit:10;}
</style>
<path class="st0" d="M1.5,0.5h21c0.6,0,1,0.4,1,1v13c0,0.6-0.4,1-1,1h-21c-0.6,0-1-0.4-1-1v-13C0.5,0.9,0.9,0.5,1.5,0.5z"/>
<line class="st0" x1="11.5" y1="15.5" x2="11.5" y2="18.9"/>
<path class="st0" d="M6.5,23.5l4.3-4.3c0.4-0.4,1-0.4,1.4,0l4.3,4.3"/>
<path class="st0" d="M0.5,8.5h5.7c0.2,0,0.4-0.1,0.5-0.3l0.9-2.1c0.1-0.3,0.4-0.4,0.7-0.3C8.3,5.9,8.4,6,8.4,6.1l1.7,4.3
	c0.1,0.3,0.4,0.4,0.6,0.3c0.1,0,0.2-0.1,0.3-0.2l2.1-3.8c0.1-0.2,0.4-0.3,0.7-0.2c0.1,0,0.1,0.1,0.2,0.2l1.6,2.5
	c0.1,0.2,0.5,0.3,0.7,0.2c0.1-0.1,0.2-0.1,0.2-0.2l2.1-4.7"/>
</svg>
