<svg xmlns="http://www.w3.org/2000/svg" xmlns:xlink="http://www.w3.org/1999/xlink" viewBox="0 0 559.88 173.75"><defs><style>.cls-1{fill:url(#Namnlös_övertoning_7);}.cls-2{fill:url(#Namnlös_övertoning_7-2);}.cls-3{font-size:91.68px;fill:#51a6dd;font-family:Aharoni-Bold, Aharoni;font-weight:700;}.cls-4{fill:#1778bd;}</style><linearGradient id="Namnlös_övertoning_7" x1="255.73" y1="24.45" x2="318.39" y2="24.45" gradientUnits="userSpaceOnUse"><stop offset="0" stop-color="#f07e1a"/><stop offset="1" stop-color="#f07e1a" stop-opacity="0.3"/></linearGradient><linearGradient id="Namnlös_övertoning_7-2" x1="303.11" y1="477.13" x2="365.77" y2="477.13" gradientTransform="translate(532.16 501.58) rotate(180)" xlink:href="#Namnlös_övertoning_7"/></defs><g id="Lager_2" data-name="Lager 2"><g id="Lager_1-2" data-name="Lager 1"><path id="path5330" class="cls-1" d="M318.39,11.15v26.6l-62.66-8V19.12Z"/><path id="path5330-2" data-name="path5330" class="cls-2" d="M166.39,37.75V11.15l62.66,8V29.78Z"/><text class="cls-3" transform="translate(0 144.85)">High</text><text class="cls-3" transform="translate(275.57 142.87)">ower</text><path id="path5332" class="cls-4" d="M219.42,12.45a1,1,0,0,0,.4,1.85H263.3a1,1,0,0,0,1-1,1,1,0,0,0-.57-.89L241.57,0Z"/><path id="path5334" class="cls-4" d="M275.31,144.84,260.5,38.93h3.8a2,2,0,1,0,0-4H218.85a2,2,0,1,0,0,4h3.8L207.83,144.84Z"/></g></g></svg>