<?xml version="1.0" encoding="utf-8"?>
<!-- Generator: Adobe Illustrator 24.3.0, SVG Export Plug-In . SVG Version: 6.00 Build 0)  -->
<svg version="1.1" id="Lager_1" xmlns="http://www.w3.org/2000/svg" xmlns:xlink="http://www.w3.org/1999/xlink" x="0px" y="0px"
	 viewBox="0 0 533 533" style="enable-background:new 0 0 533 533;" xml:space="preserve">
<style type="text/css">
	.st0{fill:#E2F3F5;}
</style>
<path class="st0" d="M264.3,43.2c39.3,0,78.6,11.1,113.7,32.2c22.3,13.4,42.3,30.3,59.3,49.9l-58.7-1.9c-6.9-0.2-12.7,5.2-12.9,12.1
	c-0.2,6.9,5.2,12.7,12.1,12.9l81.2,2.7c4.7,1.9,10,0.8,13.6-2.7c3.6-3.6,4.6-8.9,2.7-13.6l-2.7-81.2c-0.2-6.9-5.9-12.4-12.8-12.2
	c-6.9,0.2-12.4,5.9-12.2,12.8c0,0.1,0,0.2,0,0.3l1.5,46.8C432,82.9,412.4,67,390.8,54c-39-23.4-82.8-35.8-126.6-35.8
	c-70,0-134.5,28.8-181.6,81.2C40.9,145.9,16,208.3,16,266.5c0,6.9,5.6,12.5,12.5,12.5S41,273.4,41,266.5
	c0-52.2,22.5-108.4,60.3-150.3C143.6,69.1,201.5,43.2,264.3,43.2z"/>
<path class="st0" d="M503.2,254c-6.9,0-12.5,5.6-12.5,12.5c0,52.2-22.5,108.4-60.3,150.3c-42.3,47-100.2,72.9-163,72.9
	c-39.3,0-78.6-11.1-113.7-32.2c-22.3-13.4-42.3-30.3-59.3-49.9l58.7,1.9c6.9,0.2,12.7-5.2,12.9-12.1s-5.2-12.7-12.1-12.9l-81.2-2.7
	c-4.7-1.9-10-0.8-13.6,2.7c-3.6,3.6-4.6,8.9-2.7,13.6l2.7,81.2c0.2,6.9,5.9,12.4,12.8,12.2c6.9-0.2,12.4-5.9,12.2-12.8
	c0-0.1,0-0.2,0-0.3l-1.5-46.8c17.2,18.4,36.8,34.3,58.4,47.2c39,23.4,82.8,35.8,126.6,35.8c70,0,134.5-28.8,181.6-81.2
	c41.8-46.4,66.7-108.8,66.7-167.1C515.7,259.6,510.1,254,503.2,254z"/>
</svg>
