<svg xmlns="http://www.w3.org/2000/svg" xmlns:xlink="http://www.w3.org/1999/xlink" viewBox="0 0 152.01 144.84"><defs><style>.cls-1{fill:url(#Namnlös_övertoning_7);}.cls-2{fill:url(#Namnlös_övertoning_7-2);}.cls-3{fill:#1778bd;}</style><linearGradient id="Namnlös_övertoning_7" x1="89.34" y1="24.45" x2="152.01" y2="24.45" gradientUnits="userSpaceOnUse"><stop offset="0" stop-color="#f07e1a"/><stop offset="1" stop-color="#f07e1a" stop-opacity="0.3"/></linearGradient><linearGradient id="Namnlös_övertoning_7-2" x1="-557.98" y1="477.13" x2="-495.31" y2="477.13" gradientTransform="translate(-495.31 501.58) rotate(180)" xlink:href="#Namnlös_övertoning_7"/></defs><g id="Lager_2" data-name="Lager 2"><g id="Lager_1-2" data-name="Lager 1"><path id="path5330" class="cls-1" d="M152,11.15v26.6l-62.67-8V19.12Z"/><path id="path5330-2" data-name="path5330" class="cls-2" d="M0,37.75V11.15l62.67,8V29.78Z"/><path id="path5332" class="cls-3" d="M53,12.45a1,1,0,0,0,.4,1.85H96.92a1,1,0,0,0,1-1,1,1,0,0,0-.57-.89L75.18,0Z"/><path id="path5334" class="cls-3" d="M108.92,144.84,94.11,38.93h3.8a2,2,0,1,0,0-4H52.46a2,2,0,1,0,0,4h3.8L41.45,144.84Z"/></g></g></svg>